<svg width="27" height="30" viewBox="0 0 27 30" fill="none" xmlns="http://www.w3.org/2000/svg">
<path d="M20.6675 14.959L12.215 23.4115C11.7224 23.9039 11.3728 24.5209 11.2035 25.1965L10.5473 27.818C10.4825 28.0787 10.4864 28.3518 10.5583 28.6106C10.6303 28.8694 10.768 29.1052 10.9581 29.2951C11.1481 29.4849 11.384 29.6224 11.6429 29.6942C11.9018 29.7659 12.1748 29.7695 12.4355 29.7045L15.057 29.05C15.7327 28.881 16.3498 28.5313 16.842 28.0385L25.2945 19.586C25.9002 18.9706 26.2382 18.1407 26.2347 17.2771C26.2312 16.4136 25.8865 15.5865 25.2758 14.976C24.6651 14.3655 23.8378 14.0211 22.9743 14.018C22.1107 14.0148 21.281 14.353 20.6658 14.959H20.6675ZM5.25 0.875C5.25 0.642936 5.15781 0.420376 4.99372 0.256282C4.82962 0.0921874 4.60707 0 4.375 0C4.14294 0 3.92038 0.0921874 3.75628 0.256282C3.59219 0.420376 3.5 0.642936 3.5 0.875V1.75H2.625C1.92881 1.75 1.26113 2.02656 0.768844 2.51885C0.276561 3.01113 0 3.67881 0 4.375V25.375C0 26.0712 0.276561 26.7389 0.768844 27.2312C1.26113 27.7234 1.92881 28 2.625 28H8.75525C8.7675 27.8005 8.799 27.5975 8.84975 27.3928L9.506 24.7713C9.75097 23.7876 10.2591 22.8892 10.976 22.1725L19.4285 13.72C19.8794 13.268 20.4129 12.9068 21 12.656V4.375C21 3.67881 20.7234 3.01113 20.2312 2.51885C19.7389 2.02656 19.0712 1.75 18.375 1.75H17.5V0.875C17.5 0.642936 17.4078 0.420376 17.2437 0.256282C17.0796 0.0921874 16.8571 0 16.625 0C16.3929 0 16.1704 0.0921874 16.0063 0.256282C15.8422 0.420376 15.75 0.642936 15.75 0.875V1.75H11.375V0.875C11.375 0.642936 11.2828 0.420376 11.1187 0.256282C10.9546 0.0921874 10.7321 0 10.5 0C10.2679 0 10.0454 0.0921874 9.88128 0.256282C9.71719 0.420376 9.625 0.642936 9.625 0.875V1.75H5.25V0.875ZM6.125 8.75H14.875C15.1071 8.75 15.3296 8.84219 15.4937 9.00628C15.6578 9.17038 15.75 9.39294 15.75 9.625C15.75 9.85707 15.6578 10.0796 15.4937 10.2437C15.3296 10.4078 15.1071 10.5 14.875 10.5H6.125C5.89294 10.5 5.67038 10.4078 5.50628 10.2437C5.34219 10.0796 5.25 9.85707 5.25 9.625C5.25 9.39294 5.34219 9.17038 5.50628 9.00628C5.67038 8.84219 5.89294 8.75 6.125 8.75ZM15.75 14.875C15.75 15.1071 15.6578 15.3296 15.4937 15.4937C15.3296 15.6578 15.1071 15.75 14.875 15.75H6.125C5.89294 15.75 5.67038 15.6578 5.50628 15.4937C5.34219 15.3296 5.25 15.1071 5.25 14.875C5.25 14.6429 5.34219 14.4204 5.50628 14.2563C5.67038 14.0922 5.89294 14 6.125 14H14.875C15.1071 14 15.3296 14.0922 15.4937 14.2563C15.6578 14.4204 15.75 14.6429 15.75 14.875ZM6.125 19.25H9.625C9.85707 19.25 10.0796 19.3422 10.2437 19.5063C10.4078 19.6704 10.5 19.8929 10.5 20.125C10.5 20.3571 10.4078 20.5796 10.2437 20.7437C10.0796 20.9078 9.85707 21 9.625 21H6.125C5.89294 21 5.67038 20.9078 5.50628 20.7437C5.34219 20.5796 5.25 20.3571 5.25 20.125C5.25 19.8929 5.34219 19.6704 5.50628 19.5063C5.67038 19.3422 5.89294 19.25 6.125 19.25Z" fill="white"/>
</svg>
